<?xml version="1.0" encoding="UTF-8" standalone="no"?>
<!-- Created with Inkscape (http://www.inkscape.org/) -->

<svg
   width="164.15901mm"
   height="163.34949mm"
   viewBox="0 0 164.15901 163.34949"
   version="1.1"
   id="svg1"
   xml:space="preserve"
   xmlns="http://www.w3.org/2000/svg"
   xmlns:svg="http://www.w3.org/2000/svg"><defs
     id="defs1" /><g
     id="layer2"
     transform="translate(-13.047885,-21.248657)"><circle
       style="fill:#ffffff;fill-opacity:1;stroke:none;stroke-width:0.264583;stroke-opacity:1"
       id="path9893"
       cx="94.711861"
       cy="102.70371"
       r="79.530151" /><g
       id="g9887"><path
         style="display:inline;fill:#1f81f3"
         d="m 88.376864,184.50213 c -0.52402,-0.0442 -2.429545,-0.28018 -4.2345,-0.5243 -9.417197,-1.27369 -17.855566,-3.91592 -26.389449,-8.2631 -18.044094,-9.1917 -31.502154,-23.90511 -38.999438,-42.63725 -4.059977,-10.14395 -5.986118,-20.96354 -5.672649,-31.86462 0.07199,-2.503644 0.219556,-5.219018 0.327915,-6.034159 0.609682,-4.586388 0.894049,-6.430872 1.294135,-8.394126 0.444415,-2.180783 1.124377,-4.899511 1.474935,-5.897313 0.10228,-0.291122 0.444365,-1.386799 0.76019,-2.434838 C 18.362606,73.724987 21.648606,66.37218 24.416927,61.717462 28.73883,54.450515 34.396018,47.533714 40.343941,42.244186 53.48439,30.558297 69.446291,23.504195 87.106514,21.57823 c 3.259007,-0.355416 12.550953,-0.356413 15.879376,-0.0017 5.82342,0.620601 13.18228,2.220132 18.42007,4.003811 7.98385,2.718817 15.79192,6.80981 22.33699,11.703328 13.68874,10.234589 23.58286,23.748483 29.13388,39.792546 1.58249,4.573857 3.1054,11.234038 3.67936,16.091102 0.18577,1.572058 0.42108,3.525222 0.52291,4.340363 0.26553,2.125581 0.0935,10.24262 -0.29697,14.01471 -1.61922,15.64131 -7.4243,29.73469 -17.39456,42.22991 -3.25402,4.07809 -6.47281,7.45369 -10.03391,10.52273 -6.92837,5.97103 -13.12584,9.93906 -20.96077,13.42048 -1.57206,0.69853 -4.66854,1.87328 -6.88106,2.61055 -5.95018,1.98274 -9.04746,2.74524 -14.71489,3.62256 -3.13244,0.4849 -4.21551,0.54663 -10.480389,0.59737 -3.842809,0.0311 -7.415668,0.0204 -7.939687,-0.0239 z m 37.792916,-17.63777 c 10.39091,-4.98557 19.11993,-12.20118 26.1293,-21.59909 7.02595,-9.42015 11.65862,-20.44686 13.35231,-31.7813 0.43327,-2.8995 0.52841,-4.22555 0.30317,-4.22555 -0.069,0 -2.47469,1.22484 -5.34606,2.72187 -2.87137,1.49703 -7.1262,3.70133 -9.45517,4.89845 -2.32898,1.19712 -4.90144,2.53271 -5.71658,2.96799 -2.21769,1.1842 -15.48411,8.04759 -17.58216,9.09613 l -0.64415,0.32193 1.07775,1.61017 c 3.66512,5.47574 5.4001,12.06286 4.69287,17.81724 -0.0966,0.78603 -0.23952,1.42505 -0.31759,1.42005 -0.0781,-0.005 -0.68374,-0.83867 -1.34593,-1.85259 -1.26381,-1.93509 -3.74629,-5.00935 -3.91159,-4.84405 -0.0532,0.0532 0.0519,0.87965 0.23342,1.83664 1.18675,6.25605 -0.99217,16.09051 -5.01293,22.62563 l -0.43848,0.71268 0.50883,-0.152 c 0.27986,-0.0836 1.8427,-0.79199 3.47299,-1.5742 z M 76.714374,156.7516 c 0.980126,-0.27987 2.235904,-0.70409 2.790617,-0.94272 l 1.00857,-0.43387 0.147725,-1.37944 c 0.290237,-2.71019 -0.341045,-6.30586 -1.590903,-9.06149 -0.316902,-0.69869 -1.115597,-2.06006 -1.774878,-3.02526 -0.65928,-0.9652 -1.198692,-1.79993 -1.198692,-1.85496 0,-0.055 0.738391,0.27428 1.640869,0.73179 2.240358,1.13573 4.047859,2.64268 4.764609,3.97233 0.811432,1.50531 1.412518,4.02889 1.554853,6.52785 0.06633,1.16449 0.155891,2.23272 0.199033,2.37386 0.100355,0.32829 2.199082,-0.36717 3.293358,-1.09133 1.311576,-0.86796 1.531823,-1.64797 1.402992,-4.96876 -0.06412,-1.65283 -0.264293,-3.46289 -0.470382,-4.25346 -0.466432,-1.78924 -1.763983,-4.49866 -2.840667,-5.93159 -0.469529,-0.62489 -0.817516,-1.17233 -0.773304,-1.21654 0.168877,-0.16888 3.373772,1.56254 4.197642,2.26775 1.395618,1.19459 2.851519,4.95876 3.261606,8.43273 0.07255,0.61463 0.219774,1.17181 0.327155,1.23817 0.293261,0.18125 1.783464,-1.53242 2.388619,-2.74681 1.698151,-3.40774 -1.056064,-11.21483 -4.730723,-13.4097 -2.092317,-1.24973 -2.275963,-1.23493 -13.117907,1.05714 -10.880785,2.30028 -11.253406,2.42701 -13.907115,4.73006 -4.987277,4.32826 -7.703932,6.25948 -11.0097,7.82658 -2.073408,0.98291 -5.562875,1.98274 -6.957173,1.99344 l -0.876652,0.007 1.505181,1.44817 c 2.934839,2.82369 6.317032,4.30413 9.822106,4.29931 3.032813,-0.004 5.920479,-1.09967 9.71514,-3.68564 l 1.577165,-1.07479 0.652667,0.35294 c 1.142514,0.61784 3.031158,2.42569 3.911813,3.74449 0.698032,1.04531 1.308502,2.56398 1.842976,4.5848 0.08218,0.31074 0.709389,0.21177 3.2434,-0.51178 z M 37.504455,141.83692 c 4.012735,-2.29586 7.471134,-6.39023 8.88441,-10.51819 0.447585,-1.30733 0.561423,-2.04678 0.576712,-3.7461 l 0.01905,-2.11725 -1.519995,-4.12864 C 42.003343,111.92513 40.892061,106.24754 40.9061,98.036989 40.9144,93.172174 41.301749,89.843497 42.320853,85.878734 44.636051,76.8716 48.636999,69.975771 53.827653,66.0462 l 1.338178,-1.013063 -1.126453,-0.335159 c -0.619549,-0.184338 -1.958269,-0.487615 -2.974933,-0.67395 -1.354943,-0.248335 -1.807182,-0.409207 -1.6938,-0.602526 0.285103,-0.486109 3.226456,-3.074635 4.923568,-4.332966 6.790126,-5.034573 15.728333,-8.399574 25.296063,-9.523306 2.837525,-0.333268 10.621667,-0.281977 13.021088,0.0858 5.705868,0.874576 10.544566,3.193356 14.100686,6.757264 1.81945,1.823439 3.42984,4.288276 3.90086,5.970596 0.26345,0.940976 0.31722,0.9871 2.19689,1.884637 2.21145,1.055959 4.41029,2.646606 5.47912,3.963598 0.79238,0.976354 1.70157,2.675018 1.92159,3.590125 0.11215,0.466452 0.3999,0.663698 1.67116,1.145528 3.47327,1.316433 9.26254,3.787391 10.78098,4.601508 1.89935,1.018333 1.87026,0.948462 1.87026,4.492891 0,5.576714 -1.75227,11.506605 -4.5768,15.488441 l -0.92805,1.30829 -0.002,2.079312 c -0.002,2.61413 -0.27517,4.31933 -1.07925,6.73726 -0.90598,2.72435 -2.14476,4.78713 -4.02028,6.69449 -2.19476,2.23202 -4.74306,3.83479 -7.68937,4.83627 l -1.04515,0.35526 1.63928,0.88422 c 1.73921,0.93811 4.07783,2.61947 5.81149,4.17817 l 1.05058,0.94457 10.13046,-5.00276 c 5.57175,-2.75151 13.1793,-6.50037 16.90566,-8.3308 3.72636,-1.83043 8.76428,-4.31862 11.19539,-5.52931 l 4.42018,-2.20126 -0.11406,-4.44859 C 165.85561,85.395591 160.23784,70.639206 150.35151,58.338546 146.49073,53.534939 140.47794,47.993976 135.21587,44.390615 125.70572,37.878258 114.1832,33.667213 102.35071,32.379648 99.169291,32.033458 91.015976,32.031194 88.059276,32.37568 68.806887,34.61878 52.223685,43.495959 40.152068,58.020959 29.244443,71.145403 23.583546,87.692883 24.075455,105.01483 c 0.378622,13.33271 3.853104,24.7769 10.785757,35.52596 0.694713,1.07715 1.313178,1.95845 1.374367,1.95845 0.06119,0 0.632183,-0.29804 1.268876,-0.66232 z M 118.20974,112.9308 c 0.81938,-0.45401 2.06339,-1.44601 3.01004,-2.40025 2.59232,-2.61312 3.98433,-5.96107 3.99356,-9.60499 0.003,-1.298578 -0.0354,-1.436202 -0.36684,-1.304004 -0.20379,0.08129 -1.0851,0.416844 -1.95846,0.745684 -0.87337,0.32884 -2.87417,1.13673 -4.44623,1.79532 -4.21008,1.76374 -7.39339,2.99477 -8.80636,3.40552 l -1.24981,0.36333 0.74066,0.32561 c 4.00569,1.761 5.55744,3.09026 6.77839,5.80652 0.4056,0.90235 0.77594,1.64074 0.82298,1.64087 0.047,1.3e-4 0.71396,-0.348 1.48207,-0.77361 z m -6.39488,-12.2339 c 4.14538,-0.872003 11.40852,-4.470893 13.33432,-6.607157 0.37026,-0.410727 0.93288,-1.458771 1.25027,-2.328987 l 0.57706,-1.582209 -1.03854,-1.064537 c -1.42173,-1.457314 -4.09178,-3.183491 -7.80899,-5.04849 l -3.12394,-1.567336 0.77634,-0.268775 c 2.33535,-0.808519 6.42502,-0.972361 9.61311,-0.385122 2.16279,0.39838 3.29133,0.349123 4.58634,-0.200176 l 0.8469,-0.359227 -0.74104,-0.614998 c -1.34225,-1.11395 -5.50901,-3.085296 -12.75643,-6.035222 -1.95052,-0.79392 -3.5464,-1.506646 -3.5464,-1.583834 0,-0.07719 0.52402,-0.318461 1.16449,-0.536163 0.64047,-0.217702 1.16387,-0.447549 1.16312,-0.51077 -0.004,-0.3386 -1.90326,-2.255388 -3.03477,-3.062814 -3.0828,-2.199841 -8.93897,-4.103209 -15.663083,-5.090807 -3.148059,-0.462367 -8.113845,-0.75408 -10.409787,-0.611518 l -1.908704,0.118518 -1.164487,-0.885658 c -1.575393,-1.198174 -5.055391,-2.847026 -6.948023,-3.292032 -2.170433,-0.510323 -6.880576,-0.341572 -9.143078,0.32757 -2.459367,0.727367 -3.054782,1.098539 -3.454006,2.153178 -1.765745,4.6646 -1.518263,9.216923 0.685242,12.604758 1.330617,2.045791 3.547635,3.990498 5.997571,5.260904 1.057799,0.548518 1.315901,0.433543 0.554003,-0.246789 -1.27228,-1.136073 -3.115793,-4.185176 -3.916544,-6.477819 -0.67197,-1.923927 -0.886888,-4.871914 -0.509239,-6.985113 0.306155,-1.713138 0.6346,-2.011931 2.879594,-2.619622 2.560722,-0.693156 4.498641,-0.0582 8.623664,2.825544 1.30489,0.912229 2.773836,1.938498 3.264324,2.280599 0.490488,0.342101 0.895412,0.675813 0.899831,0.741581 0.0044,0.06577 -0.321237,0.276599 -0.72368,0.468511 -1.188458,0.566736 -2.360293,1.773011 -2.867291,2.951558 -0.869382,2.020934 -0.34813,4.814845 1.454487,7.796055 0.448338,0.74147 0.901351,1.376859 1.006696,1.411974 0.105344,0.03511 0.343496,-0.186599 0.529225,-0.492696 0.323793,-0.533639 0.342336,-0.448732 0.450586,2.063239 0.178691,4.146549 1.127019,6.564076 3.620532,9.229649 2.169056,2.318728 4.866916,3.896635 8.05743,4.712575 2.375278,0.607453 2.453901,0.594579 2.453901,-0.401795 v -0.830092 l 2.524678,-1.287159 c 1.388568,-0.707937 2.590128,-1.287158 2.670128,-1.287158 0.08,0 0.082,0.337972 0.005,0.751048 -0.50479,2.690731 1.51401,5.616466 4.51251,6.539734 1.28348,0.39519 3.45404,0.40638 5.25713,0.0271 z m 0.91038,-20.361186 c -0.17467,-0.04344 -1.36563,-0.216344 -2.64656,-0.384238 -4.72666,-0.619526 -10.760227,-1.639729 -12.045754,-2.036787 -2.309663,-0.713383 -4.442211,-2.390007 -6.789095,-5.337635 l -0.800727,-1.005693 h 0.539497 c 0.296723,0 1.237144,0.09685 2.089824,0.215232 0.852679,0.118379 4.290195,0.537266 7.638925,0.930862 l 6.0886,0.715628 2.06281,1.906997 c 1.13455,1.048848 2.76465,2.630762 3.62245,3.515364 1.56971,1.618761 1.60218,1.819005 0.24003,1.48027 z"
         id="path9890" /><path
         style="display:inline;fill:#1f2a44;fill-opacity:1"
         d="M 87.106514,184.29626 C 77.342796,183.3305 67.056895,180.32603 57.994326,175.7927 51.051377,172.31965 43.571889,167.01123 37.881299,161.51786 25.014548,149.09704 16.763966,133.07081 13.974719,115.08085 c -0.872352,-5.62646 -1.117858,-11.8437 -0.668845,-16.937999 0.712077,-8.078908 1.439275,-12.181743 3.190358,-17.99994 3.435539,-11.415016 9.139292,-21.773727 16.979255,-30.836396 2.387625,-2.759995 7.505505,-7.69677 10.227401,-9.865486 12.426806,-9.901268 27.415656,-16.040852 43.297763,-17.7352 8.284893,-0.883856 15.469509,-0.503718 24.454239,1.293871 19.60672,3.922749 37.24754,15.181261 49.56761,31.634446 4.78313,6.38776 9.45604,15.373246 11.94628,22.971378 1.43981,4.39311 2.79423,10.189889 3.36393,14.397302 0.39743,2.935186 0.81763,7.108314 0.72292,7.179587 -0.0395,0.02974 -2.40612,1.197567 -5.25912,2.595167 l -5.18726,2.54108 -0.14862,-3.40549 C 165.86184,87.192105 162.01543,75.286644 154.49464,63.875878 149.16916,55.7959 142.04605,48.743696 133.79188,43.379189 125.81264,38.193368 115.42212,34.219052 106.22516,32.835073 91.694193,30.648421 77.709889,32.705253 64.517132,38.96955 56.874258,42.598605 50.742385,46.927119 44.748011,52.924654 32.749494,64.929497 25.597856,80.28354 24.19429,97.051988 c -0.304126,3.633392 -0.119253,12.199992 0.334244,15.488162 1.414619,10.25697 4.756518,19.42071 10.169096,27.88443 l 1.448923,2.2657 0.972811,-0.55823 c 2.685328,-1.54094 4.955959,-3.53576 6.696559,-5.88314 2.187098,-2.94952 3.274565,-5.89476 3.274565,-8.86867 0,-1.54334 -0.113097,-1.99162 -1.363199,-5.40324 -3.603407,-9.83396 -4.769488,-15.66111 -4.769488,-23.834149 0,-6.101459 0.680404,-10.393045 2.548986,-16.077501 2.235746,-6.801413 5.778516,-12.37457 9.94814,-15.649489 0.911818,-0.716163 1.591627,-1.366624 1.510687,-1.445469 -0.210579,-0.205131 -3.329561,-0.970941 -4.661638,-1.144583 l -1.126875,-0.146892 0.91515,-0.941271 c 0.503332,-0.5177 1.775456,-1.63642 2.826942,-2.486046 6.102827,-4.931231 13.872096,-8.378453 22.425381,-9.950133 4.048193,-0.743862 6.437429,-0.961442 10.536176,-0.959497 6.980096,0.0033 10.839756,0.804219 15.42091,3.199944 2.51808,1.316837 5.02441,3.273287 6.5273,5.095228 1.08973,1.321065 2.98519,4.758048 2.99669,5.433808 0.004,0.232767 0.79603,0.73174 2.37829,1.498233 2.08066,1.007929 2.59615,1.372391 4.19249,2.96415 1.47188,1.467661 1.91126,2.057975 2.2964,3.085265 0.26195,0.698692 0.54155,1.398948 0.62133,1.556123 0.0798,0.157175 1.7634,0.929769 3.74137,1.716875 4.26596,1.697577 7.94503,3.324563 9.25889,4.094533 0.78966,0.462775 0.97097,0.690483 1.08129,1.358048 0.38251,2.314611 0.0128,6.453721 -0.8988,10.063361 -0.76607,3.033336 -1.78081,5.396067 -3.29449,7.670998 -1.13808,1.710425 -1.17437,1.809714 -1.17495,3.214294 -0.003,6.31807 -2.23654,11.6922 -6.30399,15.16537 -1.47311,1.25788 -3.97651,2.76203 -5.55202,3.33589 -0.64046,0.23328 -1.34285,0.49783 -1.56085,0.5879 -0.32261,0.13328 -0.0665,0.35519 1.37621,1.19241 1.72878,1.00324 4.12079,2.73422 5.76429,4.17133 l 0.81584,0.71338 -7.16759,3.53402 c -13.70121,6.75545 -17.498913,8.62207 -17.6639,8.68201 -0.09127,0.0332 0.0154,0.81845 0.237038,1.74508 0.221637,0.92664 0.465417,2.23669 0.541732,2.91122 0.07632,0.67454 0.200691,1.22643 0.276391,1.22643 0.0757,0 1.659269,-0.79432 3.519049,-1.76516 1.85977,-0.97084 6.47788,-3.36473 10.26247,-5.31976 10.98583,-5.67502 13.00668,-6.73019 13.2536,-6.92022 0.27436,-0.21114 0.55095,0.0834 1.71911,1.83095 2.99672,4.48294 4.65628,10.26965 4.46708,15.57624 -0.0496,1.39055 -0.19103,2.62915 -0.31434,2.75246 -0.15778,0.15778 -0.36443,-0.0135 -0.69755,-0.57808 -0.74084,-1.25564 -3.2753,-4.54569 -4.13264,-5.36471 -0.73914,-0.70609 -0.77008,-0.71607 -0.65604,-0.21172 0.43888,1.9411 0.55738,2.74663 0.67557,4.59266 0.1539,2.4036 -0.12466,5.05067 -0.89809,8.53429 -0.67611,3.04525 -1.64804,5.70712 -3.32424,9.10418 -0.71823,1.45561 -1.33687,2.71572 -1.37475,2.80024 -0.21423,0.47805 7.3568,-3.26453 10.33754,-5.11015 9.61823,-5.95542 18.37407,-14.93526 23.96605,-24.57917 5.34907,-9.22499 8.09833,-17.22428 9.37873,-27.2885 0.16869,-1.32594 0.33341,-2.4303 0.36603,-2.45414 0.21886,-0.1599 3.83193,-2.081 7.04625,-3.74655 l 3.81105,-1.97475 -0.0537,1.6938 c -0.6642,20.95988 -8.67356,39.77285 -23.33343,54.80726 -9.16374,9.39785 -20.2301,16.31884 -32.61416,20.39715 -6.76669,2.22839 -12.92994,3.52531 -19.37284,4.07658 -3.427088,0.29323 -11.204554,0.2327 -14.714886,-0.11451 z m -21.278363,-23.78232 3.175875,-1.66617 -0.061,-0.90733 c -0.07409,-1.10198 -1.199734,-3.28664 -1.992924,-3.86788 l -0.571849,-0.41905 -1.333676,0.59043 c -0.733522,0.32474 -2.464619,1.12176 -3.846883,1.77115 l -2.513206,1.18071 0.113009,1.24629 c 0.132534,1.4616 0.954998,2.95942 2.018638,3.6762 0.857164,0.57765 0.846305,0.58112 5.012016,-1.60435 z m 9.73935,-3.39165 c 2.831708,-0.67953 4.769275,-1.48289 4.992494,-2.07001 0.107123,-0.28175 0.193114,-1.43502 0.191092,-2.56281 -0.0072,-3.99051 -1.196573,-7.58197 -3.606558,-10.89006 -0.572634,-0.78603 -0.986848,-1.42914 -0.920477,-1.42914 0.06637,0 0.785028,0.32729 1.597015,0.72731 1.833875,0.90345 3.527678,2.25781 4.3913,3.51128 0.863372,1.2531 1.687317,4.50552 1.861154,7.34667 0.07326,1.19728 0.169358,2.17687 0.213559,2.17687 0.447116,0 2.867392,-0.99976 3.4019,-1.40524 1.200458,-0.91069 1.428941,-1.58934 1.415863,-4.20548 -0.02218,-4.43787 -1.260872,-8.20005 -3.749545,-11.38822 l -0.626015,-0.80197 1.162557,0.51414 c 1.674578,0.74058 3.414643,1.90189 3.926226,2.62034 0.879614,1.2353 1.775051,3.88087 2.276781,6.72674 0.184771,1.04804 0.379797,2.04081 0.433392,2.20616 0.138709,0.42793 1.591936,-1.03534 2.265008,-2.28068 0.879564,-1.62738 1.051265,-2.59712 0.778478,-4.3967 -0.648214,-4.2763 -2.859737,-8.23967 -5.442091,-9.75303 -1.810474,-1.06101 -2.828994,-0.97274 -12.550746,1.08772 -9.176946,1.945 -10.454221,2.26044 -11.675269,2.88337 -0.431296,0.22003 -1.910946,1.36559 -3.288109,2.54569 -7.069615,6.058 -11.782697,8.63926 -16.813516,9.20843 -0.688713,0.0779 -1.252206,0.21508 -1.252206,0.3048 0,0.23304 2.206297,2.21813 3.306981,2.97542 2.337484,1.60823 5.618988,2.72312 8.03937,2.73138 2.477526,0.008 6.861554,-1.74753 9.843539,-3.94275 1.446201,-1.06463 1.390973,-1.07245 3.374027,0.47774 2.005013,1.56735 3.496377,3.91741 4.048736,6.3799 0.137132,0.61136 0.353265,1.11089 0.480295,1.11008 0.127031,-8.2e-4 0.993175,-0.1844 1.924765,-0.40795 z m 43.403629,-44.5821 c 2.42036,-1.55595 4.68048,-4.47578 5.59474,-7.22781 0.43098,-1.29728 0.9714,-5.541552 0.73579,-5.778662 -0.1095,-0.110208 -4.35077,1.512382 -9.40055,3.596392 -2.03785,0.841 -4.46739,1.77873 -5.39898,2.08383 -0.93159,0.30511 -1.74144,0.6279 -1.79967,0.71733 -0.0582,0.0894 0.62012,0.47818 1.50743,0.86391 1.89759,0.82492 2.49229,1.23035 3.82139,2.60523 0.90062,0.93164 2.03143,2.84205 2.3901,4.03791 0.13842,0.46148 0.16117,0.46507 0.81675,0.12857 0.37091,-0.19039 1.15075,-0.6524 1.733,-1.0267 z m -4.73635,-12.44212 c 3.67159,-1.24302 8.70303,-3.903169 10.56613,-5.586372 0.7494,-0.677037 2.1099,-3.345883 2.1099,-4.138916 0,-0.425289 -2.05199,-2.432346 -3.49346,-3.41696 -0.69869,-0.477251 -2.8797,-1.693747 -4.84669,-2.703325 l -3.57634,-1.835596 1.56495,-0.371569 c 2.55871,-0.607519 6.21934,-0.654301 9.00081,-0.115029 l 2.34997,0.45561 1.40591,-0.461526 c 0.77325,-0.25384 1.4059,-0.535392 1.4059,-0.625672 0,-0.265182 -1.48038,-1.345054 -2.96415,-2.162219 -1.37628,-0.757968 -6.50209,-2.981148 -11.37351,-4.932949 -1.42281,-0.570068 -2.51849,-1.097163 -2.43484,-1.171321 0.0837,-0.07416 0.60465,-0.303221 1.15778,-0.509027 0.55314,-0.205806 1.0057,-0.467282 1.0057,-0.581057 0,-0.113776 -0.69075,-0.892178 -1.53501,-1.729783 -1.8449,-1.830376 -4.09986,-3.062851 -7.90496,-4.320559 -5.18889,-1.715098 -10.660355,-2.57573 -17.225641,-2.709503 -4.340594,-0.08844 -4.568808,-0.114002 -5.187262,-0.580935 -4.190089,-3.163516 -9.276061,-4.492348 -13.985591,-3.654073 -2.603158,0.463351 -4.662095,1.118223 -5.273242,1.677223 -0.939466,0.859306 -1.819546,4.421777 -1.819546,7.365335 0,3.569139 1.59515,6.883414 4.471272,9.290052 1.456228,1.218521 3.894368,2.760463 4.364883,2.760463 0.149009,0 -0.299271,-0.679101 -0.996179,-1.509112 -1.513058,-1.802041 -3.203956,-5.142735 -3.720583,-7.350727 -0.269175,-1.15042 -0.333163,-2.059891 -0.24579,-3.493463 0.17944,-2.944172 0.364113,-3.379528 1.687303,-3.977728 0.917217,-0.414664 1.457322,-0.50111 3.130876,-0.50111 1.871213,0 2.124527,0.05226 3.3876,0.698829 0.750836,0.384356 2.781028,1.704129 4.511538,2.932829 l 3.146382,2.234 -0.897544,0.454771 c -2.106057,1.067106 -3.568512,3.60247 -3.289821,5.703348 0.196713,1.482895 1.218864,4.031589 2.216934,5.527837 l 0.833001,1.248788 0.411454,-0.676583 0.411455,-0.676582 0.110378,2.815395 c 0.115713,2.951486 0.369504,4.011865 1.488915,6.220917 1.708503,3.371568 5.66348,6.357613 9.889777,7.466873 2.969667,0.779437 2.752425,0.79221 2.752425,-0.161829 0,-0.983281 0.354828,-1.297791 2.650272,-2.349126 0.810864,-0.371384 1.713404,-0.798736 2.005644,-0.94967 l 0.53135,-0.274426 v 1.618591 c 0,1.373705 0.0854,1.762742 0.56422,2.571355 0.81123,1.36987 1.8389,2.274587 3.26796,2.876991 1.13777,0.47961 1.46644,0.51958 3.68405,0.44803 2.11493,-0.0682 2.73054,-0.17866 4.68542,-0.84049 z m -2.88575,-19.986374 c -1.04804,-0.164455 -4.08409,-0.636972 -6.74677,-1.050039 -2.66268,-0.413066 -5.361764,-0.886609 -5.997964,-1.052318 -1.593184,-0.414972 -3.189398,-1.229868 -4.346609,-2.219021 -1.261984,-1.078711 -3.860814,-4.218957 -3.491559,-4.218957 0.156322,0 1.37384,0.144239 2.705597,0.320531 1.331757,0.176293 4.84949,0.60866 7.817185,0.960816 4.81746,0.571655 5.45288,0.691933 5.9283,1.122146 0.29287,0.265024 1.40076,1.263245 2.46199,2.218269 2.14895,1.933906 4.28423,4.285001 3.85455,4.244136 -0.15356,-0.0146 -1.13669,-0.161107 -2.18472,-0.325563 z"
         id="path9887" /></g></g></svg>
